<?xml version="1.0" encoding="utf-8"?>
<!-- Generator: Adobe Illustrator 23.0.6, SVG Export Plug-In . SVG Version: 6.00 Build 0)  -->
<svg version="1.1" id="Layer_1" xmlns="http://www.w3.org/2000/svg" xmlns:xlink="http://www.w3.org/1999/xlink" x="0px" y="0px"
	 viewBox="0 0 67 67" style="enable-background:new 0 0 67 67;" xml:space="preserve">
<style type="text/css">
	.st0{fill:#E50914;}
</style>
<path class="st0" d="M22.3,61.5c-0.1-0.4-0.2-0.8-0.3-1.1c-0.1-0.3-0.2-0.8-0.3-1.3c-0.1-0.5-0.1-1.2-0.2-2c0-0.8,0-1.8,0-3l-0.2-8
	c0-2.8-0.5-4.8-1.5-5.9c-1-1.1-2.5-1.7-4.7-1.7h-3.3v24.4l-9.4,1.2V2.9h14.3c4.9,0,8.5,1.1,10.7,3.4c2.2,2.3,3.3,5.7,3.3,10.4v4.7
	c0,6.2-2.1,10.2-6.2,12.2c2.4,1,4,2.6,4.9,4.8c0.9,2.2,1.4,4.8,1.4,8l0.2,7.8c0,1.5,0.1,2.8,0.2,3.9c0.1,1.1,0.2,1.2,0.7,2.4
	L22.3,61.5z M11.8,11.5v18.4h3.7c1.8,0,3.1-0.5,4.1-1.4c1-0.9,1.5-2.6,1.5-5v-5.9c0-2.2-0.4-3.7-1.2-4.7c-0.7-1-1.9-1.5-3.6-1.5
	H11.8z"/>
<path class="st0" d="M45.9,2.9v42.1c0,2.2,0.4,3.7,1.3,4.5c0.9,0.9,2.1,1.3,3.6,1.3c1.5,0,2.7-0.4,3.5-1.3c0.9-0.9,1.4-2.4,1.4-4.5
	V2.9h8.9v41.5c0,4.9-1.2,8.6-3.6,11.2c-2.3,2.6-5.8,3.9-10.5,3.9c-4.6,0-8.2-1.3-10.6-3.9c-2.3-2.6-3.5-6.4-3.5-11.2V2.9H45.9z"/>
</svg>
