<svg width="273" height="64" viewBox="0 0 273 64" fill="none" xmlns="http://www.w3.org/2000/svg">
<path d="M14.0827 0C18.8928 0 22.457 1.27544 24.7751 3.82632C27.1512 6.3772 28.3393 10.1166 28.3393 15.0444V22.9579C28.3393 27.8858 27.1512 31.6251 24.7751 34.176C22.457 36.7269 18.8928 38.0023 14.0827 38.0023H9.56233V60.8733L0 62.0458V0H14.0827ZM9.56233 8.69619V29.3061H14.0827C15.5895 29.3061 16.7486 28.9003 17.5599 28.0887C18.3713 27.277 18.7769 25.7697 18.7769 23.5667V14.4357C18.7769 12.2326 18.3713 10.7253 17.5599 9.91365C16.7486 9.10201 15.5895 8.69619 14.0827 8.69619H9.56233Z" fill="#E50914"/>
<path d="M52.7626 56.8963C52.6467 56.4905 52.5308 56.1137 52.4149 55.7658C52.2989 55.418 52.183 54.9832 52.0671 54.4614C52.0092 53.9396 51.9512 53.2729 51.8933 52.4613C51.8933 51.6496 51.8933 50.6351 51.8933 49.4176V40.6043C51.8933 37.7636 51.4007 38.9879 50.4155 37.8284C49.4303 36.6689 47.8365 36.0892 45.6343 36.0892H42.3309L42.4884 57.1603L32.7686 58.1374V0H47.199C52.183 0 55.7762 1.15949 57.9784 3.47848C60.2386 5.79746 61.3687 9.30492 61.3687 14.0009V18.7838C61.3687 25.045 59.2823 29.1612 55.1097 31.1323C57.5437 32.1179 59.1954 33.7412 60.0647 36.0022C60.992 38.2052 61.4556 37.6766 61.4556 40.8652V49.5046C61.4556 51.0119 61.5136 52.3453 61.6295 53.5048C61.7454 54.6063 62.048 54.5352 62.5116 55.6947L52.7626 56.8963ZM42.3309 8.69619V27.393H46.0689C47.8655 27.393 49.2564 26.9292 50.2416 26.0016C51.2848 25.074 51.8063 23.3927 51.8063 20.9578V14.9574C51.8063 12.7544 51.4007 11.1601 50.5893 10.1745C49.8359 9.18897 48.6189 8.69619 46.9383 8.69619H42.3309Z" fill="#E50914"/>
<path d="M67.7445 0H77.3068V53.8242L67.7445 55.0369V0Z" fill="#E50914"/>
<path d="M104.553 35.363L111.073 0H124.373V53.0163H115.333V17.2184L108.907 51.7863L99.6279 52.4613L92.5569 17.8272V52.7807L84.2116 53.5048V0H97.5119L104.553 35.363Z" fill="#E50914"/>
<path d="M140.891 21.5939H154.018V30.2901H140.891V43.4809H157.408V52.1771H131.329V0H157.408V8.69619H140.891V21.5939Z" fill="#E50914"/>
<path d="M172.896 22.0824H185.24V30.7786H172.896V52.4613L163.334 52.1771V0H188.63V8.69619H172.896V22.0824Z" fill="#E50914"/>
<path d="M193.216 0H202.778V46.7044L218.513 47.9756V56.6718L193.216 54.6198V0Z" fill="#E50914"/>
<path d="M222.674 0H232.236V57.9125L222.674 56.9465V0Z" fill="#E50914"/>
<path d="M271.131 0L261.134 29.567L273 64L261.767 61.5573L253.919 36.7849L246.14 60.0916L237.055 58.626L247.747 29.567L237.75 0H247.66L254.875 22.4362L262.264 0H271.131Z" fill="#E50914"/>
</svg>
