<svg width="276" height="64" viewBox="0 0 276 64" fill="none" xmlns="http://www.w3.org/2000/svg">
<path d="M19.9878 58.5066C19.8733 58.1069 19.7588 57.7358 19.6443 57.3931C19.5297 57.0505 19.4152 56.6222 19.3007 56.1083C19.2434 55.5944 19.1862 54.9377 19.1289 54.1383C19.1289 53.3388 19.1289 52.3395 19.1289 51.1404L18.8954 43.1697C18.8954 40.3717 18.4087 38.4016 17.4353 37.2596C16.4619 36.1175 14.8873 35.5465 12.7114 35.5465H9.44769V59.9579L0 61.1128V0H14.2574C19.1817 0 22.7317 1.14206 24.9076 3.42617C27.1406 5.71028 28.2572 9.165 28.2572 13.7903V18.5013C28.2572 24.6684 26.1959 28.7227 22.0732 30.6642C24.4781 31.6349 26.11 33.2338 26.9689 35.4608C27.885 37.6307 28.3431 40.286 28.3431 43.4267L28.5766 51.226C28.5766 52.7107 28.6339 54.0241 28.7484 55.1661C28.8629 56.2511 28.9755 56.4099 29.4336 57.5519L19.9878 58.5066ZM9.44769 8.56542V26.9811H13.1409C14.9159 26.9811 16.2901 26.5242 17.2635 25.6106C18.2942 24.6969 18.8095 23.041 18.8095 20.6427V14.7325C18.8095 12.5626 18.4087 10.9923 17.6071 10.0215C16.8627 9.05079 15.6603 8.56542 13.9998 8.56542H9.44769Z" fill="#E50914"/>
<path d="M43.5748 0V42.114C43.5748 44.2839 44.0042 45.7971 44.8631 46.6536C45.7793 47.5102 46.9817 47.9385 48.4704 47.9385C49.9591 47.9385 51.1329 47.5102 51.9918 46.6536C52.908 45.7971 53.366 44.2839 53.366 42.114V0H62.2984V41.5144C62.2984 46.3681 61.096 50.1084 58.6911 52.7351C56.3435 55.3047 52.8507 56.5895 48.2128 56.5895C43.5748 56.5895 40.0534 55.3047 37.6485 52.7351C35.3009 50.1084 34.1271 46.3681 34.1271 41.5144V0H43.5748Z" fill="#E50914"/>
<path d="M77.1946 16.5312V53.2211L68.6917 53.993V0H80.5443L90.2496 35.8891V0H98.6666V52.2587L89.2657 52.7351L77.1946 16.5312Z" fill="#E50914"/>
<path d="M114.879 21.0767H127.848V29.6422H114.879V44.0782H131.197V51.7775H118.217L105.431 52.2587V0H131.197V8.56542H114.879V21.0767Z" fill="#E50914"/>
<path d="M134.303 0H163.505V8.56542H153.628V51.5091L149.098 51.4887L144.181 51.5091V8.56542H134.303V0Z" fill="#E50914"/>
<path d="M177.114 22.0988H189.31V30.6642H177.114V52.2587L167.666 51.7775V0H192.66V8.56542H177.114V22.0988Z" fill="#E50914"/>
<path d="M197.19 0H206.638V46.0031L222.441 47.7353V56.3008L197.19 54.0698V0Z" fill="#E50914"/>
<path d="M226.295 0H235.743V57.5519L226.295 56.5895V0Z" fill="#E50914"/>
<path d="M274.172 0L264.294 29.1224L276 64L266.35 62.0752L258.111 35.609L249.462 59.9579L240.294 58.5143L251.068 29.1224L241.191 0H250.982L258.111 22.0988L265.411 0H274.172Z" fill="#E50914"/>
</svg>
