<svg width="16" height="17" viewBox="0 0 16 17" fill="none" xmlns="http://www.w3.org/2000/svg">
<path d="M13.4619 6.30865C13.4241 6.21729 13.36 6.1392 13.2778 6.08426C13.1956 6.02932 13.0989 6 13 6H3C2.90111 6 2.80444 6.02932 2.72221 6.08427C2.63999 6.13921 2.5759 6.2173 2.53806 6.30866C2.50022 6.40003 2.49031 6.50056 2.50961 6.59755C2.5289 6.69455 2.57653 6.78364 2.64646 6.85356L7.64646 11.8535C7.69288 11.9 7.748 11.9368 7.80866 11.9619C7.86932 11.9871 7.93434 12 8 12C8.06566 12 8.13068 11.9871 8.19134 11.9619C8.252 11.9368 8.30712 11.9 8.35355 11.8535L13.3535 6.85356C13.4235 6.78364 13.4711 6.69454 13.4904 6.59755C13.5097 6.50056 13.4998 6.40002 13.4619 6.30865Z" fill="#E50914"/>
</svg>
