<svg version="1.1" id="Layer_1" xmlns="http://www.w3.org/2000/svg" xmlns:xlink="http://www.w3.org/1999/xlink" x="0px" y="0px"
	 viewBox="0 0 16 17" style="enable-background:new 0 0 16 17;" xml:space="preserve">
<style type="text/css">
	.st0{fill:#FFFFFF;}
</style>
<path class="st0" d="M2.5,11.7c0,0.1,0.1,0.2,0.2,0.2S2.9,12,3,12h10c0.1,0,0.2,0,0.3-0.1c0.1-0.1,0.1-0.1,0.2-0.2
	c0-0.1,0-0.2,0-0.3c0-0.1-0.1-0.2-0.1-0.3l-5-5c0,0-0.1-0.1-0.2-0.1C8.1,6,8.1,6,8,6C7.9,6,7.9,6,7.8,6c-0.1,0-0.1,0.1-0.2,0.1l-5,5
	c-0.1,0.1-0.1,0.2-0.1,0.3C2.5,11.5,2.5,11.6,2.5,11.7z"/>
</svg>
