<?xml version="1.0" encoding="utf-8"?>
<!-- Generator: Adobe Illustrator 23.0.6, SVG Export Plug-In . SVG Version: 6.00 Build 0)  -->
<svg version="1.1" id="Layer_1" xmlns="http://www.w3.org/2000/svg" xmlns:xlink="http://www.w3.org/1999/xlink" x="0px" y="0px"
	 viewBox="0 0 362 400" style="enable-background:new 0 0 362 400;" xml:space="preserve">
<style type="text/css">
	.st0{fill:none;stroke:#FFFFFF;stroke-width:2;stroke-miterlimit:10;}
</style>
<g>
	<path class="st0" d="M121,10.7V393H66.4V144.5H5V87.2h6.5c38.3,0,60.7-25.5,67.2-76.5C78.7,10.7,121,10.7,121,10.7z"/>
	<path class="st0" d="M247.5,10c17.3,0,32.8,3.9,46.4,11.7s24.6,18,33,30.4s15.3,27.2,20.9,44.3c5.5,17.1,9.3,34.1,11.4,51.3
		c2.1,17.1,3.1,35,3.1,54c0,59.5-10.2,106.1-30.5,139.9s-48.3,50.7-83.9,50.7c-36.5,0-65-16.8-85.5-50.4s-30.7-80.3-30.7-140.2
		c0-23.9,1.9-46.4,5.8-67.6c3.9-21.2,10-41.4,18.4-60.9s20.4-34.8,36.1-46.2C207.8,15.7,226.3,10,247.5,10z M247,72.5
		c-8.4,0-15.7,2.2-22,6.4c-6.3,4.2-11.3,10.6-15,18.9s-6.7,16.4-9,24.1c-2.2,7.7-3.8,17.7-4.7,29.9c-0.9,12.2-1.4,21.6-1.6,28
		c-0.2,6.4-0.2,15-0.2,25.7c0,83.7,17.6,125.5,52.9,125.5c34.7,0,52-43,52-129.2c0-44.5-4.2-77.2-12.6-98
		C278.6,82.9,265.3,72.5,247,72.5z"/>
</g>
</svg>
