<?xml version="1.0" encoding="utf-8"?>
<!-- Generator: Adobe Illustrator 23.0.6, SVG Export Plug-In . SVG Version: 6.00 Build 0)  -->
<svg version="1.1" id="Layer_1" xmlns="http://www.w3.org/2000/svg" xmlns:xlink="http://www.w3.org/1999/xlink" x="0px" y="0px"
	 viewBox="0 0 289 400" style="enable-background:new 0 0 289 400;" xml:space="preserve">
<style type="text/css">
	.st0{fill:none;stroke:#FFFFFF;stroke-width:2;stroke-miterlimit:10;}
</style>
<g>
	<path class="st0" d="M285.2,317.9v66.7H3.2c0.4-17.1,2.6-32.5,6.9-46.9c4.2-14.2,9.1-26.2,14.8-36c5.7-9.7,14.4-20,26.1-30.9
		s22.1-19.5,31.1-26c8.9-6.4,22.1-15.6,39.3-27.1c2.2-1.5,8-5.3,17.6-11.4c9.5-6.1,16.1-10.4,19.8-13c3.6-2.5,9.1-6.9,16.5-13.3
		s12.6-11.8,15.7-16.6c3.1-4.7,6.2-10.5,9-17.6c2.9-7,4.4-14.3,4.4-21.9c0-16.7-5-29.9-15.1-39.9s-23.4-14.9-39.8-14.9
		c-39.5,0-60.4,27.5-62.7,82.4H11.9v-8.1c0-43,12.7-77.2,38-102.7C75.2,15.3,109.2,2.5,152.1,2.5c38.9,0,70.4,10.7,94.6,32.2
		S283,84.1,283,118.4c0,27.9-6.4,50-19.2,66.7c-12.9,16.7-33,34.1-60.4,52.5c-3.6,2.5-10.4,6.9-20.3,13.3
		c-9.9,6.3-17.7,11.5-23.4,15.5c-5.7,4-12.6,9-20.6,15.2s-15,12.2-20.9,18.2c-5.9,6-10.8,12-14.8,18.2L285.2,317.9L285.2,317.9z"/>
</g>
</svg>
