<?xml version="1.0" encoding="utf-8"?>
<!-- Generator: Adobe Illustrator 23.0.6, SVG Export Plug-In . SVG Version: 6.00 Build 0)  -->
<svg version="1.1" id="Layer_1" xmlns="http://www.w3.org/2000/svg" xmlns:xlink="http://www.w3.org/1999/xlink" x="0px" y="0px"
	 viewBox="0 0 289 400" style="enable-background:new 0 0 289 400;" xml:space="preserve">
<style type="text/css">
	.st0{fill:none;stroke:#FFFFFF;stroke-width:2;stroke-miterlimit:10;}
</style>
<g>
	<path class="st0" d="M12.1,132.4c1.5-40,13.9-71.4,37.4-94.3C73,15.1,104.9,3.6,145.3,3.6c38.1,0,69,9.8,92.7,29.4
		c23.7,19.6,35.5,45,35.5,76.2c0,18.7-4.9,34.9-14.6,48.7c-9.7,13.8-22.8,22.8-39.3,27.2c21.3,5.1,38,15.5,50.1,31.1
		c12.1,15.6,18.2,34.8,18.2,57.5c0,36.7-13.3,66.7-39.9,89.9c-26.6,23.3-61,34.9-103.2,34.9c-43.7,0-78.3-12.1-104-36.3
		c-25.7-24.2-38.5-56.8-38.5-97.9v-5.5h75.4c0.4,23.8,6.1,42.1,17.3,54.7c11.2,12.7,27.2,19,48.1,19c19.1,0,34.5-5.4,46.2-16.2
		c11.7-10.8,17.6-24.8,17.6-42.1c0-20.2-6.5-34.7-19.5-43.7c-13-9-29.8-13.5-50.3-13.5c-7.7,0-14.1,0.2-19.3,0.6v-55
		c4,0.4,8.4,0.6,13.2,0.6c44.7,0,67.1-16.1,67.1-48.4c0-14.7-4.9-26.4-14.6-35.2c-9.7-8.8-22.7-13.2-38.8-13.2
		c-18.3,0-32.6,5.7-42.6,17.1c-10.1,11.4-15.3,27.7-15.7,49H12.1z"/>
</g>
</svg>
