<?xml version="1.0" encoding="utf-8"?>
<!-- Generator: Adobe Illustrator 23.0.6, SVG Export Plug-In . SVG Version: 6.00 Build 0)  -->
<svg version="1.1" id="Layer_1" xmlns="http://www.w3.org/2000/svg" xmlns:xlink="http://www.w3.org/1999/xlink" x="0px" y="0px"
	 viewBox="0 0 289 400" style="enable-background:new 0 0 289 400;" xml:space="preserve">
<style type="text/css">
	.st0{fill:none;stroke:#FFFFFF;stroke-width:2;stroke-miterlimit:10;}
</style>
<g>
	<path class="st0" d="M265.3,9v66.5H109l-14.7,83.6c17.8-18,41.2-26.9,70.3-26.9c36.7,0,66.1,11.5,88.2,34.6
		c22.1,23.1,33.2,53.5,33.2,91.3c0,40.3-13.4,73.5-40.3,99.5c-26.9,26-61.4,39-103.5,39c-39.9,0-72.5-10.4-97.8-31.1
		c-25.2-20.7-38.9-50.3-41.1-88.8h76.3c1.8,16.9,8.4,30.5,19.9,41c11.4,10.4,25.7,15.7,42.8,15.7c19.2,0,35-6.9,47.4-20.6
		c12.3-13.7,18.5-31.4,18.5-53.1c0-21.6-6-38.9-18-51.7c-12-12.8-28.1-19.2-48.5-19.2c-24.3,0-43.4,10.6-57.2,31.9H15.3L52.4,9
		H265.3z"/>
</g>
</svg>
