<?xml version="1.0" encoding="utf-8"?>
<!-- Generator: Adobe Illustrator 23.0.6, SVG Export Plug-In . SVG Version: 6.00 Build 0)  -->
<svg version="1.1" id="Layer_1" xmlns="http://www.w3.org/2000/svg" xmlns:xlink="http://www.w3.org/1999/xlink" x="0px" y="0px"
	 viewBox="0 0 289 400" style="enable-background:new 0 0 289 400;" xml:space="preserve">
<style type="text/css">
	.st0{fill:none;stroke:#FFFFFF;stroke-width:2;stroke-miterlimit:10;}
</style>
<g>
	<path class="st0" d="M278.8,105.6h-75c-7.4-28.9-24.8-43.3-52.2-43.3c-43.3,0-68,38-73.9,114.1C99.1,147.4,128,133,164.3,133
		c35.6,0,64.7,11.9,87.5,35.6c22.8,23.8,34.2,54.1,34.2,91c0.4,39.9-12.5,72.6-38.6,98.2c-26.1,25.6-59.4,38.4-99.8,38.4
		c-45.9,0-81.9-16.7-107.8-50.2C13.9,312.6,0.9,265.9,0.9,205.9C0.9,142.7,14.4,93,41.5,57c27-36,64.1-54,111.1-54
		c35.2,0,63.8,9,85.9,26.9C260.5,47.8,273.9,73,278.8,105.6z M145.9,191.1c-17.8,0-32.4,6.8-43.9,20.3c-11.5,13.5-17.2,30.5-17.2,51
		c0,20.8,5.7,37.8,17.2,51c11.5,13.2,26.3,19.7,44.5,19.7c18.1,0,33.2-6.8,45-20.3c11.9-13.5,17.8-30.5,17.8-51
		c0-20.5-5.9-37.4-17.8-50.7C179.7,197.8,164.5,191.1,145.9,191.1z"/>
</g>
</svg>
