<?xml version="1.0" encoding="utf-8"?>
<!-- Generator: Adobe Illustrator 23.0.6, SVG Export Plug-In . SVG Version: 6.00 Build 0)  -->
<svg version="1.1" id="Layer_1" xmlns="http://www.w3.org/2000/svg" xmlns:xlink="http://www.w3.org/1999/xlink" x="0px" y="0px"
	 viewBox="0 0 289 400" style="enable-background:new 0 0 289 400;" xml:space="preserve">
<style type="text/css">
	.st0{fill:none;stroke:#FFFFFF;stroke-width:2;stroke-miterlimit:10;}
</style>
<g>
	<path class="st0" d="M71.7,186.7c-18.2-6.2-32.1-16.3-41.8-30.1c-9.7-13.8-14.5-30.4-14.5-49.9c0-30.2,12.2-55.1,36.6-74.8
		c24.4-19.7,55-29.5,91.8-29.5c37.1,0,67.8,9.8,92,29.5c24.2,19.7,36.3,44.6,36.3,74.8c0,40.8-18.6,67.5-55.7,80
		c22.2,5.5,39.7,16.6,52.4,33.4c12.7,16.7,19.1,37.1,19.1,61c0,35.3-13.2,63.7-39.6,85.2c-26.4,21.5-61.3,32.3-104.6,32.3
		c-43.3,0-78.1-10.8-104.3-32.3C13.3,344.7,0.2,316.3,0.2,281c0-23.9,6.4-44.2,19.1-61C32,203.3,49.5,192.2,71.7,186.7z
		 M142.2,214.8c-18.9,0-34.4,5.7-46.4,17.1c-12,11.4-18,26.1-18,44.1c0,18.8,6.1,33.9,18.3,45.5c12.2,11.6,28.1,17.4,47.8,17.4
		c20,0,36.1-5.7,48.3-17.1c12.2-11.4,18.3-26.5,18.3-45.2c0-18.4-6.3-33.3-18.8-44.7C179,220.5,162.6,214.8,142.2,214.8z
		 M143.8,61.4c-17.1,0-31,4.6-41.5,13.8c-10.6,9.2-15.8,21.3-15.8,36.4c0,15.8,5.3,28.4,15.8,37.8c10.6,9.4,24.6,14.1,42.1,14.1
		c17.8,0,31.9-4.7,42.3-14.1s15.6-22,15.6-37.8c0-15.8-5.2-28.1-15.6-37S162,61.4,143.8,61.4z"/>
</g>
</svg>
