<?xml version="1.0" encoding="utf-8"?>
<!-- Generator: Adobe Illustrator 23.0.6, SVG Export Plug-In . SVG Version: 6.00 Build 0)  -->
<svg version="1.1" id="Layer_1" xmlns="http://www.w3.org/2000/svg" xmlns:xlink="http://www.w3.org/1999/xlink" x="0px" y="0px"
	 viewBox="0 0 289 400" style="enable-background:new 0 0 289 400;" xml:space="preserve">
<style type="text/css">
	.st0{fill:none;stroke:#FFFFFF;stroke-width:2;stroke-miterlimit:10;}
</style>
<g>
	<path class="st0" d="M11.4,294.8h73.8c6.2,29.2,23.7,43.7,52.5,43.7c13.5,0,24.9-3.6,34.2-10.9c9.3-7.3,16.3-17.5,21-30.6
		c4.7-13.1,8.2-25.1,10.4-35.8c2.2-10.7,3.8-23.2,4.9-37.4c-20.8,29.5-48.1,44.3-82,44.3c-35.4,0-64.4-11.8-87.2-35.5
		c-22.8-23.7-34.2-53.9-34.2-90.8c0-39,13.1-71.5,39.4-97.6C70.5,18,103.3,5,142.6,5c25.5,0,47.8,5.4,67,16.1
		c19.1,10.8,34,25.2,44.6,43.5c10.6,18.2,18.4,37.9,23.5,59c5.1,21.1,7.7,43.7,7.7,67.8c0,24.8-2.6,48.7-7.7,71.6
		c-5.1,23-13,44.8-23.8,65.6c-10.8,20.8-26.2,37.4-46.2,50c-20,12.6-43.4,18.9-70,18.9c-35,0-63.8-9.3-86.4-27.9
		C28.7,351.1,15.4,326.1,11.4,294.8z M141,69c-17.1,0-31.4,6.7-42.9,20c-11.5,13.3-17.2,30-17.2,50c0,20.4,5.6,37.2,16.9,50.3
		c11.3,13.1,25.9,19.7,43.7,19.7c17.5,0,32-6.6,43.5-19.7c11.5-13.1,17.2-29.7,17.2-49.8c0-20-5.8-36.8-17.5-50.3
		C173.1,75.7,158.5,69,141,69z"/>
</g>
</svg>
